<svg width="160" height="40" xmlns="http://www.w3.org/2000/svg">
 <defs>
  <style>.cls-1 {
        font-size: 100px;
        fill: #151922;
        font-family: Gordita;
        font-weight: 700;
      }</style>
 </defs>
 <g>
  <title>background</title>
  <rect x="-1" y="-1" width="162" height="42" id="canvas_background" fill="none"/>
 </g>
 <g>
  <title>Layer 1</title>
  <text transform="matrix(0.18870392134594147,0,0,0.1929760241394491,372.57965422872735,35.18965257723368) " stroke="null" id="Arduino101" class="cls-1" x="-1752.21035" y="-31.93178">Arduino101</text>
  <metadata>Created by potrace 1.16, written by Peter Selinger 2001-2019</metadata>
  <g stroke="null" id="svg_12">
   <g stroke="null" transform="matrix(0.005521589787891247,0,0,-0.005300278612055726,-1909.5024140742332,43.02896461705041) " fill="#000000" id="svg_4">
    <path stroke="null" d="m348150.29696,6975.56054l-222,-223l230,-229c127,-127 233,-232 236,-235c6,-6 444,432 444,445c0,10 -450,465 -460,465c-3,0 -105,-100 -228,-223z" id="svg_5" stroke-width="0" fill="#151922"/>
    <path stroke="null" d="m349281.29696,6803.56054c-145,-39 -80,21 -1385,-1283c-969,-968 -1213,-1217 -1237,-1262c-86,-161 -85,-336 2,-505c26,-51 181,-211 1081,-1111c1127,-1126 1083,-1086 1226,-1128c71,-22 208,-22 280,0c133,39 95,3 1363,1272c658,658 1208,1214 1222,1235c44,64 77,165 82,252c7,100 -8,175 -54,268c-33,66 -68,104 -412,450c-251,252 -382,377 -396,377c-17,0 -415,-129 -477,-155c-11,-4 -43,-84 -97,-248c-45,-133 -81,-246 -81,-250c0,-5 51,-61 113,-125c129,-135 147,-170 147,-290c0,-140 27,-108 -704,-838c-734,-734 -703,-708 -846,-709c-143,0 -135,-7 -706,567c-534,537 -537,540 -550,650c-8,67 14,152 55,216c16,26 317,333 668,683c508,506 648,641 688,659c36,17 73,25 132,28c119,6 166,-18 305,-155l109,-107l248,82c171,57 251,88 256,100c26,62 155,460 155,477c0,13 -127,147 -377,397c-406,404 -423,417 -560,453c-71,19 -181,18 -250,0z" id="svg_6" stroke-width="0" fill="#151922"/>
    <path stroke="null" d="m347295.29696,6120.56054c-119,-119 -217,-222 -217,-227c0,-6 103,-114 230,-240l230,-230l220,220c121,121 220,224 220,230c0,10 -450,465 -460,465c-3,0 -103,-98 -223,-218z" id="svg_7" stroke-width="0" fill="#151922"/>
    <path stroke="null" d="m346435.29696,5260.56054c-119,-119 -217,-222 -217,-227c0,-6 104,-114 230,-240l230,-230l226,226l227,227l-231,231c-127,127 -235,231 -239,231c-5,0 -106,-98 -226,-218z" id="svg_8" stroke-width="0" fill="#151922"/>
    <path stroke="null" d="m351604.29696,3519.56054c-189,-189 -217,-221 -208,-237c6,-11 109,-117 230,-237c189,-188 222,-217 238,-209c26,14 434,426 434,438c0,12 -452,464 -465,464c-6,0 -108,-98 -229,-219z" id="svg_9" stroke-width="0" fill="#151922"/>
    <path stroke="null" d="m350743.29696,2658.56054l-220,-220l237,-237l238,-238l142,145c78,80 178,182 222,228l81,82l-230,230c-126,127 -234,230 -240,230c-6,0 -109,-99 -230,-220z" id="svg_10" stroke-width="0" fill="#151922"/>
    <path stroke="null" d="m349888.29696,1803.56054l-225,-225l230,-230c126,-127 234,-230 240,-230c15,1 445,423 445,437c0,10 -332,350 -430,440l-36,33l-224,-225z" id="svg_11" stroke-width="0" fill="#151922"/>
   </g>
  </g>
 </g>
</svg>